{"title":"Broken 2006 DVDRip Xvid LKRG","uid":10808381,"size":1175269150,"categoryP":"video","categoryS":"movies","magnet":"?xt=urn:btih:c943509b157560ff9ea726463ffbcffd76bf86e0&amp;dn=Broken+2006+DVDRip+Xvid+LKRG&amp;tr=udp%3A%2F%2Ftracker.openbittorrent.com%3A80&amp;tr=udp%3A%2F%2Fopen.demonii.com%3A1337&amp;tr=udp%3A%2F%2Ftracker.coppersurfer.tk%3A6969&amp;tr=udp%3A%2F%2Fexodus.desync.com%3A6969","seeders":3,"leechers":2,"uploader":".BONE.","files":2,"time":1408400125,"description":"PLOT\n\nAfter dating a wonderful man, Hope comes back home, sees her daughter Jennifer and goes to sleep. She wakes-up\nin the woods with a psychopath, fighting to survive for more than forty days .\n\nRuntime ..........: 1h 30mn\nFile Size ........: 1.09 GB\nResolution .......: 720 x 464 &lt;a href=&quot;\nhttp://www.imdb.com/title/tt0454839/&quot; rel=&quot;nofollow&quot; target=&quot;_NEW&quot;&gt;\nhttp://www.imdb.com/title/tt0454839/&lt;/a&gt;\nGenre ............: Horror,Thriller\nLanguage .........: English\nSubtitles ........: None\nComplete name : Broken 2006 DVDRip Xvid LKRGBroken_LKRG.avi\nFormat : AVI\nFormat/Info : Audio Video Interleave\nFile size : 1.09 GiB\nDuration : 1h 30mn\nOverall bit rate : 1 734 Kbps\nWriting application : VirtualDubMod 1.5.10.2 (build 2540/release)\nWriting library : VirtualDubMod build 2540/release\nVideo\nID : 0\nFormat : MPEG-4 Visual\nFormat profile : Advanced Simple@L5\nFormat settings, BVOP : 2\nFormat settings, QPel : No\nFormat settings, GMC : No warppoints\nFormat settings, Matrix : Default (H.263)\nMuxing mode : Packed bitstream\nCodec ID : XVID\nCodec ID/Hint : XviD\nDuration : 1h 30mn\nBit rate : 1 499 Kbps\nWidth : 720 pixels\nHeight : 464 pixels\nDisplay aspect ratio : 1.881\nFrame rate : 29.970 fps\nColor space : YUV\nChroma subsampling : 4:2:0\nBit depth : 8 bits\nScan type : Progressive\nCompression mode : Lossy\nBits/(Pixel*Frame) : 0.150\nStream size : 968 MiB (86%)\nWriting library : XviD 1.2.1 (UTC 2008-12-04)\nAudio\nID : 1\nFormat : AC-3\nFormat/Info : Audio Coding 3\nMode extension : CM (complete main)\nFormat settings, Endianness : Big\nCodec ID : 2000\nDuration : 1h 30mn\nBit rate mode : Constant\nBit rate : 224 Kbps\nChannel(s) : 2 channels\nChannel positions : Front: L R\nSampling rate : 48.0 KHz\nBit depth : 16 bits\nCompression mode : Lossy\nStream size : 145 MiB (13%)\nAlignment : Split accross interleaves\nInterleave, duration : 33 ms (1.00 video frame)\nInterleave, preload duration : 500 ms","torrent":{"xt":"urn:btih:c943509b157560ff9ea726463ffbcffd76bf86e0","amp;dn":"Broken+2006+DVDRip+Xvid+LKRG","amp;tr":["udp%3A%2F%2Ftracker.openbittorrent.com%3A80","udp%3A%2F%2Fopen.demonii.com%3A1337","udp%3A%2F%2Ftracker.coppersurfer.tk%3A6969","udp%3A%2F%2Fexodus.desync.com%3A6969"],"infoHash":"c943509b157560ff9ea726463ffbcffd76bf86e0","infoHashBuffer":{"type":"Buffer","data":[201,67,80,155,21,117,96,255,158,167,38,70,63,251,207,253,118,191,134,224]},"announce":[],"urlList":[]}}